<svg width="45" height="45" viewBox="0 0 45 45" fill="none" xmlns="http://www.w3.org/2000/svg">
<g clip-path="url(#clip0_904_135)">
<g clip-path="url(#clip1_904_135)">
<path d="M34.4531 0H10.5469C4.722 0 0 4.722 0 10.5469V34.4531C0 40.278 4.722 45 10.5469 45H34.4531C40.278 45 45 40.278 45 34.4531V10.5469C45 4.722 40.278 0 34.4531 0Z" fill="url(#paint0_radial_904_135)"/>
<path d="M34.4531 0H10.5469C4.722 0 0 4.722 0 10.5469V34.4531C0 40.278 4.722 45 10.5469 45H34.4531C40.278 45 45 40.278 45 34.4531V10.5469C45 4.722 40.278 0 34.4531 0Z" fill="url(#paint1_radial_904_135)"/>
<path d="M22.5011 9C18.8348 9 18.3746 9.01606 16.9347 9.08154C15.4975 9.14742 14.5165 9.37489 13.6581 9.70874C12.7701 10.0535 12.017 10.5148 11.2666 11.2654C10.5156 12.0159 10.0543 12.769 9.70847 13.6566C9.37368 14.5152 9.14593 15.4967 9.08127 16.9332C9.01687 18.3732 9 18.8336 9 22.5C9 26.1664 9.0162 26.6252 9.08154 28.065C9.14769 29.5022 9.37516 30.4833 9.70874 31.3416C10.0538 32.2296 10.5151 32.9828 11.2657 33.7331C12.0159 34.4841 12.769 34.9465 13.6564 35.2913C14.5154 35.6251 15.4965 35.8526 16.9335 35.9185C18.3735 35.9839 18.8333 36 22.4995 36C26.1662 36 26.6249 35.9839 28.0648 35.9185C29.502 35.8526 30.4841 35.6251 31.3431 35.2913C32.2307 34.9465 32.9828 34.4841 33.7328 33.7331C34.4838 32.9828 34.945 32.2296 35.291 31.342C35.6228 30.4833 35.8507 29.502 35.9182 28.0653C35.9829 26.6254 35.9997 26.1664 35.9997 22.5C35.9997 18.8336 35.9829 18.3735 35.9182 16.9335C35.8507 15.4963 35.6228 14.5154 35.291 13.657C34.945 12.769 34.4838 12.0159 33.7328 11.2654C32.982 10.5145 32.231 10.0533 31.3423 9.70888C30.4817 9.37489 29.5001 9.14728 28.0629 9.08154C26.6229 9.01606 26.1644 9 22.4969 9H22.5011ZM21.29 11.4328C21.6495 11.4323 22.0506 11.4328 22.5011 11.4328C26.1057 11.4328 26.5328 11.4458 27.9562 11.5104C29.2725 11.5706 29.9869 11.7906 30.4628 11.9754C31.0928 12.22 31.5419 12.5125 32.0142 12.9852C32.4867 13.4577 32.7791 13.9076 33.0244 14.5376C33.2092 15.0128 33.4294 15.7273 33.4893 17.0435C33.554 18.4666 33.568 18.8941 33.568 22.4969C33.568 26.0997 33.554 26.5273 33.4893 27.9503C33.4291 29.2665 33.2092 29.9809 33.0244 30.4563C32.7797 31.0863 32.4867 31.5349 32.0142 32.0071C31.5417 32.4796 31.0931 32.772 30.4628 33.0168C29.9874 33.2024 29.2725 33.4218 27.9562 33.482C26.5331 33.5467 26.1057 33.5607 22.5011 33.5607C18.8963 33.5607 18.4691 33.5467 17.0461 33.482C15.7298 33.4213 15.0154 33.2013 14.5391 33.0165C13.9092 32.7718 13.4591 32.4794 12.9866 32.0069C12.5141 31.5344 12.2217 31.0855 11.9765 30.4552C11.7916 29.9799 11.5715 29.2655 11.5115 27.9492C11.4469 26.5261 11.4339 26.0987 11.4339 22.4935C11.4339 18.8885 11.4469 18.4633 11.5115 17.0401C11.5717 15.7239 11.7916 15.0095 11.9765 14.5336C12.2212 13.9036 12.5142 13.4536 12.9868 12.9811C13.4593 12.5086 13.9092 12.2161 14.5393 11.9709C15.0151 11.7853 15.7298 11.5659 17.0461 11.5054C18.2914 11.4491 18.774 11.4323 21.29 11.4294V11.4328ZM29.7073 13.6743C28.8129 13.6743 28.0873 14.3993 28.0873 15.2938C28.0873 16.1881 28.8129 16.9138 29.7073 16.9138C30.6017 16.9138 31.3273 16.1881 31.3273 15.2938C31.3273 14.3994 30.6017 13.6738 29.7073 13.6738V13.6743ZM22.5011 15.5671C18.6725 15.5671 15.5684 18.6713 15.5684 22.5C15.5684 26.3287 18.6725 29.4314 22.5011 29.4314C26.3298 29.4314 29.4329 26.3287 29.4329 22.5C29.4329 18.6714 26.3295 15.5671 22.5008 15.5671H22.5011ZM22.5011 18C24.9863 18 27.0011 20.0145 27.0011 22.5C27.0011 24.9852 24.9863 27 22.5011 27C20.0158 27 18.0012 24.9852 18.0012 22.5C18.0012 20.0145 20.0158 18 22.5011 18Z" fill="white"/>
</g>
</g>
<defs>
<radialGradient id="paint0_radial_904_135" cx="0" cy="0" r="1" gradientUnits="userSpaceOnUse" gradientTransform="translate(11.9531 48.4659) rotate(-90) scale(44.5983 41.48)">
<stop stop-color="#FFDD55"/>
<stop offset="0.1" stop-color="#FFDD55"/>
<stop offset="0.5" stop-color="#FF543E"/>
<stop offset="1" stop-color="#C837AB"/>
</radialGradient>
<radialGradient id="paint1_radial_904_135" cx="0" cy="0" r="1" gradientUnits="userSpaceOnUse" gradientTransform="translate(-7.53768 3.24158) rotate(78.681) scale(19.9357 82.1756)">
<stop stop-color="#3771C8"/>
<stop offset="0.128" stop-color="#3771C8"/>
<stop offset="1" stop-color="#6600FF" stop-opacity="0"/>
</radialGradient>
<clipPath id="clip0_904_135">
<rect width="45" height="45" rx="22.5" fill="white"/>
</clipPath>
<clipPath id="clip1_904_135">
<rect width="45" height="45" fill="white"/>
</clipPath>
</defs>
</svg>
