<svg width="16" height="16" viewBox="0 0 16 16" fill="none" xmlns="http://www.w3.org/2000/svg">
<g clip-path="url(#clip0_904_173)">
<path d="M2.35957 0.0406599C2.29082 0.0656595 2.19082 0.106285 2.13769 0.13441C2.01582 0.19691 1.03457 1.13441 0.740818 1.46253C0.490818 1.74691 0.256443 2.18128 0.143943 2.56566C-0.431057 4.55316 0.753319 7.49378 3.35332 10.5313C3.80019 11.05 5.15644 12.3844 5.70332 12.8407C8.63457 15.2813 11.3939 16.375 13.3627 15.875C13.4971 15.8407 13.7658 15.7344 13.9533 15.6438C14.3596 15.4438 14.5283 15.3 15.2971 14.5C15.9221 13.85 15.9846 13.7469 15.9846 13.3594C15.9846 12.9282 16.0096 12.9594 14.3846 11.3407C13.0408 10.0032 12.9439 9.90941 12.7814 9.85628C12.5283 9.77191 12.2408 9.78441 12.0158 9.88753C11.8721 9.95316 11.7252 10.075 11.3314 10.4657C10.6814 11.1063 10.4658 11.225 9.93457 11.225C9.61269 11.225 9.39707 11.1563 9.01582 10.9438C7.74707 10.2344 6.64082 9.25941 5.76582 8.08128C5.32519 7.48441 4.91582 6.78753 4.82519 6.48441C4.71582 6.09691 4.78144 5.60941 4.99082 5.27191C5.03457 5.20003 5.28457 4.92191 5.55019 4.65628C5.92832 4.27191 6.04707 4.13128 6.11269 3.98753C6.21582 3.75941 6.22832 3.47191 6.14394 3.21878C6.09082 3.05628 5.99707 2.95941 4.65957 1.61566C3.08457 0.0344095 3.08144 0.0312853 2.69394 0.0125351C2.57207 0.00628471 2.43144 0.0187845 2.35957 0.0406599Z" fill="#ED801B"/>
</g>
<defs>
<clipPath id="clip0_904_173">
<rect width="16" height="16" fill="white"/>
</clipPath>
</defs>
</svg>
