<svg width="50" height="50" viewBox="0 0 50 50" fill="none" xmlns="http://www.w3.org/2000/svg">
<g clip-path="url(#clip0_904_141)">
<path d="M24.5 2C18.534 2 12.807 4.37199 8.5918 8.59004C4.37221 12.8098 2.00117 18.5325 2 24.5C2 30.465 4.37305 36.1919 8.5918 40.41C12.807 44.628 18.534 47 24.5 47C30.466 47 36.193 44.628 40.4082 40.41C44.627 36.1919 47 30.465 47 24.5C47 18.535 44.627 12.8081 40.4082 8.59004C36.193 4.37199 30.466 2 24.5 2Z" fill="url(#paint0_linear_904_141)"/>
<path d="M12.1848 24.2623C18.745 21.4048 23.1184 19.5208 25.3051 18.6106C31.5559 16.0115 32.8532 15.5601 33.7005 15.5448C33.8868 15.5418 34.3016 15.5879 34.5723 15.8067C34.7973 15.9913 34.8606 16.2409 34.8923 16.4162C34.9204 16.5912 34.9591 16.9903 34.9274 17.3017C34.5899 20.8596 33.1239 29.4932 32.3786 33.4782C32.0657 35.1643 31.4434 35.7296 30.8423 35.7848C29.5344 35.905 28.543 34.9214 27.2774 34.092C25.2981 32.7937 24.1801 31.9858 22.2571 30.7191C20.0352 29.2552 21.4766 28.4505 22.7423 27.1357C23.0727 26.7915 28.8313 21.5549 28.9403 21.08C28.9544 21.0206 28.9684 20.7991 28.8348 20.6824C28.7048 20.5653 28.5114 20.6054 28.3708 20.637C28.1704 20.682 25.0098 22.7731 18.8786 26.9099C17.9821 27.5266 17.17 27.8272 16.4387 27.8114C15.6372 27.7941 14.0903 27.3571 12.9407 26.9838C11.5344 26.5257 10.413 26.2835 10.5114 25.5055C10.5606 25.1005 11.1196 24.686 12.1848 24.2623Z" fill="white"/>
</g>
<defs>
<linearGradient id="paint0_linear_904_141" x1="2252" y1="2" x2="2252" y2="4502" gradientUnits="userSpaceOnUse">
<stop stop-color="#2AABEE"/>
<stop offset="1" stop-color="#229ED9"/>
</linearGradient>
<clipPath id="clip0_904_141">
<rect width="45" height="45" fill="white" transform="translate(2 2)"/>
</clipPath>
</defs>
</svg>
