<svg width="50" height="50" viewBox="0 0 50 50" fill="none" xmlns="http://www.w3.org/2000/svg">
<g clip-path="url(#clip0_904_155)">
<circle cx="24.5" cy="24.5" r="22.5" fill="#090909"/>
<path d="M30.4751 20.7462C32.2153 21.9918 34.3471 22.7247 36.6496 22.7247V18.2883C36.2138 18.2884 35.7792 18.2429 35.3529 18.1524V21.6445C33.0506 21.6445 30.9191 20.9117 29.1785 19.6662V28.7195C29.1785 33.2485 25.5119 36.9197 20.9892 36.9197C19.3017 36.9197 17.7331 36.4088 16.4302 35.5327C17.9173 37.0553 19.9912 37.9998 22.2855 37.9998C26.8086 37.9998 30.4753 34.3286 30.4753 29.7994V20.7462H30.4751ZM32.0748 16.2705C31.1854 15.2976 30.6015 14.0404 30.4751 12.6504V12.0798H29.2464C29.5557 13.8464 30.6108 15.3557 32.0748 16.2705ZM19.2908 32.0574C18.7939 31.4051 18.5253 30.607 18.5265 29.7865C18.5265 27.7151 20.2036 26.0356 22.2727 26.0356C22.6583 26.0354 23.0416 26.0947 23.4091 26.2114V21.6758C22.9796 21.6169 22.5462 21.5918 22.113 21.6011V25.1313C21.7453 25.0145 21.3618 24.9553 20.9761 24.9556C18.907 24.9556 17.23 26.6349 17.23 28.7066C17.23 30.1714 18.0682 31.4396 19.2908 32.0574Z" fill="#FF004F"/>
<path d="M29.179 19.6661C30.9197 20.9116 33.0511 21.6444 35.3534 21.6444V18.1524C34.0682 17.8782 32.9306 17.2058 32.0752 16.2705C30.6111 15.3556 29.5562 13.8463 29.2469 12.0798H26.0193V29.7992C26.0119 31.865 24.3377 33.5376 22.2731 33.5376C21.0565 33.5376 19.9756 32.9569 19.2911 32.0573C18.0687 31.4396 17.2304 30.1713 17.2304 28.7066C17.2304 26.6352 18.9074 24.9557 20.9765 24.9557C21.3729 24.9557 21.755 25.0175 22.1134 25.1314V21.6012C17.6701 21.6931 14.0967 25.3284 14.0967 29.7993C14.0967 32.0312 14.9865 34.0545 16.4308 35.5329C17.7337 36.4088 19.3022 36.9199 20.9898 36.9199C25.5126 36.9199 29.1791 33.2484 29.1791 28.7195V19.6662L29.179 19.6661Z" fill="white"/>
<path d="M35.3531 18.1524V17.2084C34.1942 17.2102 33.0582 16.8852 32.075 16.2707C32.9453 17.2248 34.0914 17.8827 35.3531 18.1526V18.1524ZM29.2465 12.0799C29.217 11.9111 29.1944 11.7412 29.1787 11.5706V11H24.7221V28.7196C24.7151 30.7852 23.0409 32.4578 20.9761 32.4578C20.3908 32.4586 19.8134 32.3216 19.2907 32.0576C19.9752 32.9571 21.0561 33.5377 22.2727 33.5377C24.3373 33.5377 26.0117 31.8653 26.0189 29.7995V12.08H29.2465V12.0799ZM22.1133 21.6012V20.5961C21.7409 20.5451 21.3655 20.5196 20.9896 20.5197C16.4664 20.5197 12.7998 24.1911 12.7998 28.7196C12.7998 31.5588 14.2408 34.061 16.4306 35.5329C14.9863 34.0546 14.0965 32.0312 14.0965 29.7994C14.0965 25.3286 17.6698 21.6932 22.1133 21.6012Z" fill="#00F2EA"/>
</g>
<defs>
<clipPath id="clip0_904_155">
<rect width="45" height="45" fill="white" transform="translate(2 2)"/>
</clipPath>
</defs>
</svg>
