<svg width="50" height="50" viewBox="0 0 50 50" fill="none" xmlns="http://www.w3.org/2000/svg">
<g clip-path="url(#clip0_904_152)">
<path d="M24.5 2C12.0734 2 2 12.0734 2 24.5C2 36.9266 12.0734 47 24.5 47C36.9266 47 47 36.9266 47 24.5C47 12.0734 36.9266 2 24.5 2ZM33.1531 27.3852C33.1531 27.3852 35.143 29.3492 35.6328 30.2609C35.6469 30.2797 35.6539 30.2984 35.6586 30.3078C35.8578 30.643 35.9047 30.9031 35.8062 31.0977C35.6422 31.4211 35.0797 31.5805 34.8875 31.5945H31.3719C31.1281 31.5945 30.6172 31.5312 29.9984 31.1047C29.5236 30.7725 29.0557 30.2278 28.5995 29.6968C28.5986 29.6958 28.5977 29.6948 28.5969 29.6937C27.9148 28.9016 27.3242 28.2172 26.7289 28.2172C26.6533 28.2171 26.5781 28.2289 26.5062 28.2523C26.0562 28.3977 25.4797 29.0398 25.4797 30.7508C25.4797 31.2852 25.0578 31.5922 24.7602 31.5922H23.15C22.6016 31.5922 19.7445 31.4 17.2133 28.7305C14.1148 25.4609 11.3258 18.9031 11.3023 18.8422C11.1266 18.418 11.4898 18.1906 11.8859 18.1906H15.4367C15.9102 18.1906 16.0648 18.4789 16.1727 18.7344C16.2992 19.032 16.7633 20.2156 17.525 21.5469C18.7602 23.7172 19.5172 24.5984 20.1242 24.5984C20.238 24.5971 20.3498 24.5681 20.45 24.5141C21.2422 24.0734 21.0945 21.2492 21.0594 20.6633C21.0594 20.5531 21.057 19.4 20.6516 18.8469C20.3609 18.4461 19.8664 18.2937 19.5664 18.2375C19.6878 18.0699 19.8478 17.9341 20.0328 17.8414C20.5766 17.5695 21.5562 17.5297 22.5289 17.5297H23.0703C24.125 17.5437 24.3969 17.6117 24.7789 17.7078C25.5523 17.893 25.5687 18.3922 25.5008 20.1008C25.4797 20.5859 25.4586 21.1344 25.4586 21.7812C25.4586 21.9219 25.4516 22.0719 25.4516 22.2312C25.4515 22.2334 25.4515 22.2355 25.4514 22.2376C25.428 23.1056 25.4015 24.0885 26.0141 24.493C26.0942 24.5432 26.1867 24.57 26.2812 24.5703C26.4945 24.5703 27.1367 24.5703 28.8758 21.5867C29.4121 20.6264 29.8782 19.6285 30.2703 18.6008C30.3055 18.5398 30.4086 18.3523 30.5305 18.2797C30.6204 18.2338 30.7201 18.2105 30.8211 18.2117H34.9953C35.45 18.2117 35.7617 18.2797 35.8203 18.4555C35.9234 18.7344 35.8016 19.5852 33.8961 22.1656L33.0453 23.2883C31.318 25.5523 31.318 25.6672 33.1531 27.3852Z" fill="#087BFF"/>
<path d="M33.1531 27.3852C33.1531 27.3852 35.143 29.3492 35.6328 30.2609C35.6469 30.2797 35.6539 30.2984 35.6586 30.3078C35.8578 30.643 35.9047 30.9031 35.8062 31.0977C35.6422 31.4211 35.0797 31.5805 34.8875 31.5945H31.3719C31.1281 31.5945 30.6172 31.5312 29.9984 31.1047C29.5236 30.7725 29.0557 30.2278 28.5995 29.6968L28.5969 29.6937C27.9148 28.9016 27.3242 28.2172 26.7289 28.2172C26.6533 28.2171 26.5781 28.2289 26.5062 28.2523C26.0562 28.3977 25.4797 29.0398 25.4797 30.7508C25.4797 31.2852 25.0578 31.5922 24.7602 31.5922H23.15C22.6016 31.5922 19.7445 31.4 17.2133 28.7305C14.1148 25.4609 11.3258 18.9031 11.3023 18.8422C11.1266 18.418 11.4898 18.1906 11.8859 18.1906H15.4367C15.9102 18.1906 16.0648 18.4789 16.1727 18.7344C16.2992 19.032 16.7633 20.2156 17.525 21.5469C18.7602 23.7172 19.5172 24.5984 20.1242 24.5984C20.238 24.5971 20.3498 24.5681 20.45 24.5141C21.2422 24.0734 21.0945 21.2492 21.0594 20.6633C21.0594 20.5531 21.057 19.4 20.6516 18.8469C20.3609 18.4461 19.8664 18.2937 19.5664 18.2375C19.6878 18.0699 19.8478 17.9341 20.0328 17.8414C20.5766 17.5695 21.5562 17.5297 22.5289 17.5297H23.0703C24.125 17.5437 24.3969 17.6117 24.7789 17.7078C25.5523 17.893 25.5687 18.3922 25.5008 20.1008C25.4797 20.5859 25.4586 21.1344 25.4586 21.7812C25.4586 21.9219 25.4516 22.0719 25.4516 22.2312L25.4514 22.2376C25.428 23.1056 25.4015 24.0885 26.0141 24.493C26.0942 24.5432 26.1867 24.57 26.2812 24.5703C26.4945 24.5703 27.1367 24.5703 28.8758 21.5867C29.4121 20.6264 29.8782 19.6285 30.2703 18.6008C30.3055 18.5398 30.4086 18.3523 30.5305 18.2797C30.6204 18.2338 30.7201 18.2105 30.8211 18.2117H34.9953C35.45 18.2117 35.7617 18.2797 35.8203 18.4555C35.9234 18.7344 35.8016 19.5852 33.8961 22.1656L33.0453 23.2883C31.318 25.5523 31.318 25.6672 33.1531 27.3852Z" fill="white"/>
</g>
<defs>
<clipPath id="clip0_904_152">
<rect width="45" height="45" fill="white" transform="translate(2 2)"/>
</clipPath>
</defs>
</svg>
