<svg width="50" height="50" viewBox="0 0 50 50" fill="none" xmlns="http://www.w3.org/2000/svg">
<g clip-path="url(#clip0_904_162)">
<path d="M2.18755 24.2972C2.18646 28.2267 3.21781 32.0635 5.1789 35.4453L2 47L13.878 43.8995C17.1633 45.68 20.8442 46.6129 24.5848 46.6132H24.5946C36.9429 46.6132 46.9947 36.61 47 24.3148C47.0024 18.3569 44.6738 12.7545 40.4432 8.53959C36.2133 4.325 30.5877 2.00272 24.5937 2C12.2439 2 2.19265 12.0026 2.18755 24.2972Z" fill="url(#paint0_linear_904_162)"/>
<path d="M18.9316 15.5408C18.526 14.6463 18.0992 14.6283 17.7135 14.6126C17.3976 14.5991 17.0366 14.6001 16.6759 14.6001C16.3148 14.6001 15.7282 14.7349 15.2324 15.2721C14.736 15.8098 13.3374 17.1093 13.3374 19.7523C13.3374 22.3954 15.2774 24.9497 15.5479 25.3084C15.8187 25.6665 19.2931 31.2638 24.7958 33.4171C29.3691 35.2066 30.2997 34.8507 31.2923 34.761C32.285 34.6716 34.4954 33.4618 34.9464 32.2074C35.3977 30.9531 35.3977 29.878 35.2624 29.6533C35.1271 29.4295 34.766 29.2951 34.2246 29.0265C33.6831 28.7578 31.0215 27.4582 30.5253 27.2789C30.0289 27.0998 29.6681 27.0104 29.307 27.5483C28.946 28.0853 27.9092 29.2951 27.5932 29.6533C27.2776 30.0124 26.9616 30.0571 26.4204 29.7884C25.8786 29.5189 24.1351 28.9523 22.0666 27.1224C20.4572 25.6984 19.3706 23.94 19.0548 23.4021C18.739 22.865 19.021 22.5739 19.2924 22.3062C19.5357 22.0655 19.834 21.6789 20.105 21.3653C20.3749 21.0516 20.465 20.8278 20.6455 20.4695C20.8262 20.1109 20.7358 19.7972 20.6006 19.5285C20.465 19.2598 19.413 16.603 18.9316 15.5408Z" fill="white"/>
</g>
<defs>
<linearGradient id="paint0_linear_904_162" x1="2252" y1="4502" x2="2252" y2="2" gradientUnits="userSpaceOnUse">
<stop stop-color="#1FAF38"/>
<stop offset="1" stop-color="#60D669"/>
</linearGradient>
<clipPath id="clip0_904_162">
<rect width="45" height="45" fill="white" transform="translate(2 2)"/>
</clipPath>
</defs>
</svg>
