<svg width="50" height="50" viewBox="0 0 50 50" fill="none" xmlns="http://www.w3.org/2000/svg">
<g clip-path="url(#clip0_904_145)">
<path d="M24.5 2C12.0734 2 2 12.0734 2 24.5C2 36.9266 12.0734 47 24.5 47C36.9266 47 47 36.9266 47 24.5C47 12.0734 36.9266 2 24.5 2Z" fill="#FF0000"/>
<g clip-path="url(#clip1_904_145)">
<path d="M38.2727 17.7585C38.1101 17.1481 37.7929 16.5915 37.3527 16.1443C36.9125 15.6971 36.3647 15.3748 35.7638 15.2096C33.5639 14.6001 24.7101 14.6001 24.7101 14.6001C24.7101 14.6001 15.8559 14.6185 13.656 15.2281C13.0551 15.3933 12.5073 15.7156 12.0671 16.1628C11.6269 16.61 11.3098 17.1666 11.1472 17.7771C10.4818 21.7481 10.2236 27.799 11.1655 31.6112C11.3281 32.2217 11.6452 32.7782 12.0854 33.2255C12.5256 33.6727 13.0734 33.9949 13.6743 34.1601C15.8742 34.7697 24.7282 34.7697 24.7282 34.7697C24.7282 34.7697 33.5821 34.7697 35.7819 34.1601C36.3828 33.9949 36.9306 33.6727 37.3708 33.2255C37.811 32.7783 38.1282 32.2217 38.2908 31.6112C38.9927 27.6346 39.2089 21.5874 38.2727 17.7585Z" fill="white"/>
<path d="M21.8921 29.0068L29.237 24.6848L21.8921 20.3628V29.0068Z" fill="#FF0000"/>
</g>
</g>
<defs>
<clipPath id="clip0_904_145">
<rect width="45" height="45" fill="white" transform="translate(2 2)"/>
</clipPath>
<clipPath id="clip1_904_145">
<rect width="28.35" height="20.25" fill="white" transform="translate(10.5498 14.6001)"/>
</clipPath>
</defs>
</svg>
